 <svg  version="1.0" xmlns="http://www.w3.org/2000/svg"  width="300.000000pt" height="200.000000pt" viewBox="0 0 300.000000 200.000000"  preserveAspectRatio="xMidYMid meet">  <g transform="translate(0.000000,200.000000) scale(0.100000,-0.100000)" fill="#fd1212" stroke="none"> <path d="M1063 1904 c-21 -6 -49 -15 -63 -18 -74 -18 -202 -168 -232 -271 -6 -22 -20 -53 -31 -68 -19 -28 -19 -28 2 -77 28 -64 27 -80 -8 -93 -18 -7 -32 -22 -41 -45 -12 -33 -11 -36 16 -57 l29 -23 7 21 c10 34 9 59 -2 52 -5 -3 -10 -1 -10 4 0 6 3 11 8 11 14 -1 38 -25 36 -37 -1 -7 -2 -27 -3 -44 0 -16 -4 -28 -9 -25 -14 8 -72 -23 -72 -39 0 -9 -7 -18 -15 -21 -23 -9 -18 -29 15 -66 35 -38 36 -42 11 -67 -11 -11 -17 -21 -15 -23 2 -3 -10 -3 -26 0 -23 3 -30 0 -30 -12 0 -13 6 -15 28 -11 74 16 112 31 112 42 0 17 -5 16 -38 -4 l-27 -17 25 27 c13 15 30 25 37 23 7 -3 15 -1 18 4 9 15 42 12 48 -4 3 -8 4 -22 1 -33 -2 -12 13 -31 52 -63 30 -25 67 -56 82 -70 70 -65 76 -65 31 -1 -24 36 -67 83 -95 105 -46 36 -51 44 -46 71 5 32 22 59 22 36 0 -7 11 -26 24 -42 13 -15 26 -34 28 -40 3 -9 9 -9 24 -1 18 11 18 11 -5 12 -16 0 -21 4 -18 14 3 8 -3 23 -14 35 -21 23 -26 58 -16 106 l7 30 -11 -30 c-16 -41 -38 -65 -76 -81 -32 -14 -63 -10 -63 7 0 5 -5 9 -10 9 -7 0 -7 -6 0 -20 6 -11 7 -20 1 -20 -7 0 -31 51 -31 67 0 3 23 2 50 -2 48 -7 52 -5 85 28 19 19 35 41 35 49 0 7 -9 -1 -19 -18 -21 -35 -72 -60 -98 -49 -19 8 -29 11 -52 13 -11 2 -10 6 4 16 11 8 24 12 29 9 5 -4 6 -1 3 4 -4 6 6 13 23 17 31 6 53 37 32 44 -7 2 -12 10 -12 18 0 8 -5 14 -10 14 -16 0 16 69 42 91 l23 19 -32 -16 c-18 -8 -35 -24 -38 -34 -7 -22 -25 -27 -24 -7 0 6 9 26 19 42 44 69 43 68 21 56 -26 -14 -31 -14 -31 4 0 8 5 15 11 15 5 0 8 4 5 9 -3 4 5 20 17 35 14 16 23 38 22 54 -2 15 0 19 2 10 7 -29 20 -20 22 15 4 61 7 72 29 107 12 19 22 39 22 43 0 5 23 31 50 59 30 30 50 44 50 35 0 -9 -4 -19 -10 -22 -15 -9 -12 -24 5 -21 20 3 44 26 27 26 -7 0 -12 5 -12 11 0 5 5 7 10 4 6 -3 13 0 16 9 8 21 28 26 66 16 l33 -9 -23 19 -24 19 36 -1 c20 -1 37 -7 41 -16 3 -9 13 -12 25 -9 11 3 20 1 20 -4 0 -5 8 -9 18 -9 9 0 24 -5 32 -11 11 -8 2 -9 -35 -5 l-50 5 55 -23 c30 -13 68 -23 85 -21 16 1 20 0 8 -2 -21 -4 -20 -6 15 -41 48 -48 70 -110 53 -150 -8 -20 -9 -36 -2 -55 18 -47 26 -30 28 61 3 116 -12 179 -50 211 -28 24 -48 33 -157 71 -19 6 -44 15 -55 20 -26 11 -45 10 -92 -6z m-236 -269 c0 -8 -4 -15 -9 -15 -4 0 -8 -6 -8 -14 0 -8 -9 -24 -19 -37 l-19 -24 1 27 c1 14 5 24 9 22 3 -2 12 9 20 26 14 32 25 39 25 15z"/> <path d="M1179 1783 c-5 -14 -7 -33 -4 -41 3 -8 2 -20 -3 -26 -4 -6 -14 -24 -20 -41 -11 -26 -10 -28 1 -13 8 10 16 16 19 13 2 -3 10 18 17 45 7 27 19 54 27 61 12 10 12 14 2 20 -21 14 -28 11 -39 -18z"/> <path d="M1135 1720 c-10 -11 -15 -23 -12 -27 4 -3 7 0 7 8 0 11 2 11 8 1 6 -9 12 -6 20 13 14 30 2 33 -23 5z"/> <path d="M1099 1654 c-14 -36 -24 -101 -15 -93 10 9 37 112 31 117 -2 3 -9 -8 -16 -24z"/> <path d="M1264 1645 c-18 -14 -17 -14 14 -8 26 4 38 1 56 -16 14 -13 26 -18 30 -13 8 13 -41 52 -63 52 -10 0 -26 -7 -37 -15z"/> <path d="M1268 1611 c-21 -9 -38 -18 -38 -22 0 -3 21 -15 46 -27 44 -22 47 -22 59 -5 12 16 11 18 -16 21 -16 2 -29 9 -29 17 0 21 21 30 32 14 8 -12 9 -12 6 0 -6 21 -18 21 -60 2z"/> <path d="M1047 1568 c-2 -7 -5 -17 -6 -23 -2 -5 -10 -18 -18 -27 -9 -10 -11 -18 -6 -18 16 0 36 29 39 56 3 26 -1 31 -9 12z"/> <path d="M936 1466 c-29 -17 -41 -32 -43 -52 l-4 -29 21 33 c11 18 31 38 45 44 14 6 25 15 25 20 0 11 0 11 -44 -16z"/> <path d="M1055 1480 c-56 -14 -80 -28 -119 -69 -22 -22 -43 -38 -47 -35 -4 2 -13 -4 -18 -15 -14 -26 -14 -34 1 -25 8 5 9 2 5 -10 -4 -10 -10 -30 -13 -44 l-5 -27 15 25 c8 14 15 33 16 44 0 22 111 133 132 133 13 0 15 -12 13 -61 -3 -77 -18 -112 -67 -156 -29 -26 -40 -45 -44 -75 l-6 -40 16 29 c9 15 16 34 16 41 0 19 51 50 60 36 5 -9 11 -7 21 5 8 10 9 15 2 11 -7 -5 -6 5 4 24 9 17 17 52 18 78 2 25 4 50 4 54 1 4 22 -11 47 -35 50 -47 73 -63 81 -55 3 3 -14 17 -36 32 -44 27 -63 60 -65 112 0 18 -1 32 -1 32 0 -1 -13 -5 -30 -9z"/> <path d="M1407 1478 c-4 -13 -13 -15 -41 -8 -40 9 -50 -4 -11 -14 26 -7 35 -26 11 -26 -7 0 -28 -3 -46 -7 -24 -4 -31 -3 -26 5 4 7 2 12 -3 12 -24 0 -8 -31 32 -62 34 -27 43 -40 45 -69 2 -25 -1 -38 -12 -42 -12 -5 -13 -12 -5 -37 15 -41 29 -38 29 8 1 37 1 37 14 12 8 -14 17 -47 20 -73 l7 -48 -30 30 c-17 17 -35 31 -40 31 -10 0 -25 35 -26 60 0 9 -16 17 -45 23 -80 15 -75 19 -72 -58 2 -38 5 -82 8 -96 4 -21 0 -28 -15 -32 -22 -5 -29 -27 -10 -27 6 0 24 9 39 20 18 13 31 16 35 10 3 -5 13 -10 21 -10 12 0 12 5 -1 38 -9 20 -25 50 -36 65 -33 45 -18 50 35 12 51 -36 72 -54 46 -40 -9 5 -12 5 -7 -1 8 -9 13 -10 40 -13 8 0 27 -12 43 -26 16 -14 32 -25 37 -25 11 0 8 15 -5 29 -11 10 -10 11 5 6 9 -4 17 -12 17 -17 0 -6 11 -7 27 -4 l26 7 -6 -78 c-4 -43 -14 -124 -24 -180 -16 -96 -19 -103 -40 -103 -13 0 -23 3 -23 8 0 4 7 54 15 112 16 118 19 228 5 194 -4 -12 -15 -24 -24 -27 -11 -4 -16 -19 -16 -44 0 -21 -5 -82 -12 -135 l-12 -98 -29 0 c-28 0 -29 1 -24 38 3 20 9 73 12 117 3 44 8 91 11 103 3 15 1 21 -6 17 -5 -3 -10 -1 -10 4 0 6 5 11 10 11 6 0 10 9 10 21 0 17 4 19 23 13 12 -4 25 -12 29 -18 5 -8 10 -8 19 1 11 11 1 17 -36 25 -5 1 -19 10 -30 20 -19 18 -20 18 -40 -35 -15 -41 -32 -64 -70 -94 -58 -47 -147 -139 -164 -171 -7 -12 -9 -27 -5 -33 3 -6 10 -43 14 -82 l8 -72 -1 80 c0 94 6 121 41 157 33 36 42 28 29 -24 -13 -55 -11 -448 3 -581 11 -100 11 -101 -12 -119 -13 -10 -18 -18 -13 -18 14 0 83 25 91 33 4 4 18 7 31 7 20 0 23 5 23 34 0 24 -5 36 -17 39 -15 4 -15 6 5 12 14 5 22 15 22 29 0 15 -3 17 -9 8 -7 -11 -9 -11 -14 2 -4 9 1 17 14 21 15 5 19 16 19 55 0 41 3 48 22 53 12 4 24 4 27 1 2 -2 -3 -30 -13 -61 -20 -64 -36 -163 -26 -163 15 0 48 47 53 75 9 57 45 139 63 145 28 10 -46 20 -148 20 l-88 0 0 32 0 31 134 -6 135 -6 -2 27 -2 27 -130 5 -130 5 -3 32 -3 33 53 -4 c29 -2 97 -5 151 -5 l97 -1 -1 -27 -1 -28 -8 25 c-5 18 -7 10 -7 -30 1 -30 -8 -90 -20 -132 -23 -82 -19 -132 13 -159 14 -11 19 -10 35 11 11 14 30 36 43 50 30 33 38 55 41 113 2 39 0 45 -11 36 -9 -8 -14 -8 -14 -1 0 6 9 13 19 17 11 3 25 13 33 22 11 14 10 15 -12 8 -40 -12 -62 -36 -49 -52 7 -7 9 -16 6 -20 -4 -3 1 -11 9 -18 15 -10 15 -15 -3 -56 l-19 -44 -36 67 c-19 37 -32 65 -27 63 15 -10 23 21 25 90 1 76 3 73 -58 78 -10 1 -18 7 -18 14 0 9 7 10 25 3 20 -7 25 -6 25 5 0 8 4 15 9 15 4 0 11 39 15 88 4 48 11 105 16 127 13 55 12 113 -2 117 -7 3 -9 14 -4 31 6 26 29 29 24 4 -1 -7 8 -31 21 -55 22 -43 65 -172 59 -177 -8 -7 -77 8 -72 16 11 18 14 58 5 64 -5 3 -12 -16 -16 -42 -3 -27 -8 -56 -10 -66 -4 -19 8 -65 27 -103 12 -26 14 -116 3 -134 -6 -10 -3 -12 16 -7 13 4 27 7 32 7 15 0 6 19 -13 25 -11 4 -18 11 -14 16 4 6 11 6 19 -1 10 -9 13 -4 12 23 -1 29 -4 33 -21 30 -20 -4 -21 -4 -2 11 14 11 16 19 9 28 -13 16 -27 128 -16 128 23 -1 35 -23 45 -83 6 -37 15 -67 20 -67 10 0 9 22 -10 245 -9 109 -34 192 -63 210 -7 5 -4 -7 8 -26 20 -34 48 -128 40 -136 -3 -2 -10 11 -16 29 -7 18 -23 50 -37 72 -14 21 -24 46 -21 57 4 13 -3 21 -24 28 -16 5 -29 17 -29 26 0 9 -12 18 -30 22 -35 7 -42 16 -46 57 -6 61 -16 106 -25 112 -5 3 -9 21 -9 41 0 29 -2 33 -14 24 -15 -13 -66 -5 -66 10 0 5 11 7 24 3 34 -8 66 4 66 25 0 9 5 22 11 28 6 6 9 17 7 24 -3 9 -6 8 -11 -3z m-157 -349 c0 -17 -20 -29 -20 -11 0 4 -3 18 -7 32 -6 22 -5 24 10 11 9 -7 17 -22 17 -32z m71 -156 c-9 -17 -10 -17 -16 -1 -4 9 -1 24 7 32 11 12 14 12 16 0 2 -7 -1 -21 -7 -31z m-35 -45 c-16 -169 -16 -168 -47 -168 -33 0 -32 -2 -20 108 7 60 14 79 37 103 15 16 30 29 32 29 3 0 2 -33 -2 -72z m287 -212 c3 -43 2 -46 -10 -30 -11 15 -12 45 -4 83 3 16 11 -13 14 -53z m-135 8 c44 -6 52 -10 52 -28 0 -40 -24 -50 -79 -32 -40 14 -177 12 -190 -1 -11 -12 -7 -17 12 -14 4 0 7 -3 7 -9 0 -9 -21 -15 -42 -11 -5 0 -8 -5 -8 -11 0 -9 -4 -8 -10 2 -14 21 -12 30 5 30 11 0 15 11 15 40 l0 40 93 0 c50 0 116 -3 145 -6z m-55 -80 c38 -7 48 -31 11 -27 -10 1 -43 4 -73 7 -73 7 -92 26 -25 26 27 0 66 -3 87 -6z m-127 -347 c-4 -67 -8 -122 -9 -123 -1 -1 -11 -4 -22 -8 -19 -5 -20 -1 -19 117 0 67 1 124 2 127 1 3 14 6 28 7 l27 1 -7 -121z m249 44 c16 -48 16 -54 1 -69 -23 -23 -30 -9 -34 71 -5 82 6 82 33 -2z"/> <path d="M1083 1325 c0 -27 -3 -61 -6 -75 -4 -15 0 -11 9 10 12 27 14 43 6 75 l-10 40 1 -50z"/> <path d="M971 1334 c-27 -19 -59 -73 -61 -102 0 -1 16 15 35 37 19 21 35 42 35 46 0 4 10 15 23 26 32 27 8 22 -32 -7z"/> <path d="M990 1200 c0 -6 4 -18 10 -28 5 -9 12 -44 16 -77 4 -42 9 -54 14 -40 4 11 3 35 -1 55 -5 19 -9 50 -9 68 0 22 -5 32 -15 32 -8 0 -15 -5 -15 -10z"/> <path d="M1173 1013 c-9 -16 -21 -33 -25 -40 -6 -7 -4 -14 3 -19 7 -4 9 -3 5 4 -3 6 -2 13 4 17 12 7 43 65 35 65 -2 0 -12 -12 -22 -27z"/> <path d="M774 953 c3 -32 9 -106 12 -165 l7 -108 -32 0 -31 0 2 93 c3 125 -9 205 -31 203 -25 -2 -31 -31 -20 -93 6 -32 9 -79 6 -105 -4 -27 -2 -48 3 -48 5 0 7 6 4 13 -2 7 1 20 8 30 11 15 13 10 15 -35 1 -29 -1 -55 -5 -58 -14 -10 -33 -52 -27 -58 3 -4 9 -2 13 4 9 14 63 31 127 40 28 4 60 11 73 15 23 9 28 -3 23 -61 -3 -31 2 -27 -46 -34 l-40 -7 38 17 c40 17 52 40 15 30 -13 -4 -44 -11 -71 -16 -26 -5 -58 -15 -70 -22 -12 -7 -26 -11 -30 -10 -5 1 -5 -2 -2 -9 5 -7 -1 -10 -16 -7 -21 3 -24 8 -25 51 -1 48 -16 72 -39 60 -5 -4 -7 -3 -3 2 8 9 -9 35 -23 35 -11 0 16 -63 30 -68 6 -2 11 -8 11 -13 0 -6 -4 -7 -10 -4 -15 9 -12 -8 9 -55 11 -24 17 -49 14 -56 -3 -7 1 -30 8 -51 7 -21 12 -67 10 -102 -2 -44 0 -61 8 -57 6 4 11 15 11 24 0 9 9 32 20 50 13 21 18 42 14 54 -4 14 -9 17 -14 9 -4 -7 -10 13 -14 45 -3 31 -5 58 -4 59 2 1 14 6 28 10 23 7 24 7 10 -10 -14 -17 -13 -18 10 -11 37 11 121 33 153 40 25 6 27 4 27 -28 0 -33 -2 -35 -42 -41 -60 -9 -136 -34 -145 -47 -4 -7 0 -9 10 -5 13 5 17 1 17 -14 0 -16 5 -19 20 -14 10 3 47 12 82 19 61 13 63 12 70 -8 3 -12 6 -26 7 -31 1 -12 -173 -50 -187 -41 -9 5 -53 -73 -67 -119 -6 -19 -7 -19 -17 -2 -5 10 -7 21 -3 25 3 3 -11 12 -32 18 -21 7 -30 12 -19 13 13 1 16 6 11 19 -4 9 -10 78 -13 151 -3 99 -9 146 -22 175 l-18 39 -1 -69 c-4 -233 14 -375 43 -346 4 3 4 -1 0 -11 -5 -13 -1 -17 21 -17 14 0 24 -4 20 -10 -3 -5 -12 -7 -20 -3 -10 3 -15 -2 -15 -16 0 -12 5 -21 10 -21 6 0 10 -4 10 -10 0 -5 -6 -10 -12 -10 -7 0 -26 -21 -42 -46 -21 -34 -34 -44 -47 -41 -14 4 -19 0 -19 -16 0 -12 -3 -32 -6 -44 -5 -17 -2 -23 10 -23 10 0 14 5 11 10 -3 6 -3 20 0 31 6 17 12 19 33 13 15 -4 47 -10 72 -13 36 -5 44 -10 42 -24 -7 -39 18 -13 32 34 9 28 21 57 26 65 19 22 -29 87 -57 77 -22 -9 -14 11 27 66 22 29 40 57 40 62 0 5 5 9 10 9 18 0 11 -40 -15 -85 -22 -36 -23 -44 -10 -49 11 -4 21 5 32 29 9 19 21 31 26 28 7 -4 8 1 3 13 -18 46 -19 74 -2 74 9 0 19 0 23 1 3 0 13 -19 21 -43 19 -55 38 -83 47 -68 8 14 45 -31 45 -55 0 -15 -2 -16 -17 -4 -15 13 -15 12 -4 -9 6 -12 18 -22 26 -22 20 0 11 42 -30 141 l-32 77 24 5 c32 6 38 -10 61 -137 11 -60 23 -101 31 -104 10 -3 11 0 3 14 -5 11 -10 55 -11 99 -1 44 -6 123 -11 175 -6 52 -13 134 -16 183 -4 54 -12 91 -20 98 -8 6 -14 17 -14 23 0 6 4 4 10 -4 17 -27 23 16 11 81 -6 34 -9 65 -6 69 2 4 -12 22 -32 41 l-36 34 7 -40 c4 -22 10 -74 13 -116 5 -74 5 -76 -18 -82 -38 -10 -39 -10 -38 41 1 27 -4 94 -12 150 -12 91 -15 102 -37 112 l-25 11 7 -58z m-50 -792 c3 -4 -4 -27 -15 -50 -11 -23 -18 -45 -15 -50 7 -11 -22 -11 -71 1 -24 6 -43 15 -43 20 0 6 11 8 23 4 19 -4 27 0 38 22 8 15 21 35 29 44 15 19 45 24 54 9z"/> <path d="M613 973 c-7 -2 -15 -21 -19 -41 -4 -20 -11 -45 -15 -54 -11 -22 0 -85 12 -66 6 8 9 0 9 -24 0 -51 8 -66 42 -84 40 -21 49 -9 15 19 -26 21 -27 25 -30 139 -1 65 -2 118 -2 117 0 0 -5 -3 -12 -6z"/> <path d="M1935 923 c-36 -19 -58 -45 -87 -102 -36 -69 -162 -254 -176 -259 -9 -3 -12 4 -10 23 2 16 -1 29 -7 31 -6 2 -10 -14 -10 -36 0 -34 3 -40 21 -40 28 0 50 26 139 165 98 155 140 205 173 205 30 0 103 -20 117 -32 12 -11 66 -10 84 1 29 18 0 34 -54 28 -33 -3 -62 -1 -77 7 -42 22 -81 25 -113 9z"/> <path d="M2350 873 c-14 -2 -35 -9 -46 -14 -12 -6 -46 -9 -77 -8 -30 2 -53 1 -50 -3 2 -5 28 -8 56 -9 43 0 48 -2 28 -10 -30 -12 -105 -13 -203 -4 -64 6 -82 4 -103 -9 -39 -26 -70 -81 -119 -210 -45 -119 -89 -200 -154 -285 -18 -25 -43 -64 -54 -88 -11 -24 -22 -43 -24 -43 -1 0 -24 11 -50 25 -58 31 -70 23 -26 -16 51 -46 88 -38 123 25 15 28 47 77 72 110 51 70 106 177 132 256 26 81 70 173 91 191 16 14 45 17 174 17 155 1 195 8 264 48 17 10 15 36 -2 33 -4 -1 -18 -4 -32 -6z"/> <path d="M535 823 c-5 -21 -9 -146 -10 -278 -1 -132 -7 -284 -14 -338 -10 -71 -10 -102 -3 -109 8 -8 13 -6 18 8 13 32 48 76 69 84 19 8 19 9 -3 9 -21 1 -23 4 -17 32 5 22 3 34 -9 42 -13 10 -16 52 -18 300 -1 158 -3 287 -4 287 -1 0 -5 -17 -9 -37z m3 -569 c-2 -19 0 -34 7 -34 5 0 3 -5 -5 -10 -13 -9 -13 -11 0 -20 10 -6 11 -10 3 -10 -7 0 -13 -7 -13 -15 0 -8 -5 -15 -11 -15 -6 0 -9 6 -6 13 3 8 8 45 13 83 4 38 9 63 12 56 2 -7 2 -29 0 -48z"/> <path d="M960 852 c0 -7 4 -12 10 -12 5 0 17 -12 27 -27 14 -22 19 -59 24 -192 4 -91 12 -237 19 -324 9 -117 10 -161 1 -170 -11 -11 -57 -12 -127 -1 -41 6 -42 5 -63 -38 -27 -56 -27 -84 -1 -84 17 0 19 5 14 37 -5 29 -2 41 15 58 22 22 51 28 51 11 0 -5 -9 -32 -20 -60 l-20 -50 23 0 c19 0 25 8 36 50 8 33 18 50 28 50 13 0 14 -9 9 -51 -5 -40 -4 -50 6 -47 7 3 15 24 18 49 4 36 10 46 33 57 21 10 32 11 40 3 7 -7 6 -12 -6 -17 -13 -5 -14 -9 -5 -24 9 -14 8 -24 -5 -44 -16 -23 -16 -26 -2 -26 9 0 21 14 26 30 6 17 17 30 24 30 7 0 15 5 17 10 6 19 48 -20 48 -46 0 -20 5 -24 28 -23 15 0 21 3 14 6 -11 4 -42 54 -42 68 0 3 16 -13 36 -35 20 -22 40 -40 45 -40 4 0 -8 17 -26 38 -19 20 -35 45 -35 55 0 21 1 21 -43 2 -50 -21 -62 -19 -63 10 -1 14 2 25 7 25 4 0 7 6 4 12 -2 7 -6 60 -10 118 -3 58 -8 116 -10 130 -2 14 -4 46 -4 73 -1 35 -5 47 -16 47 -8 0 -15 7 -15 15 0 8 7 15 16 15 13 0 15 7 10 33 -3 17 -6 69 -7 114 -2 78 -3 83 -33 110 -58 54 -76 66 -76 55z m89 -129 c0 -10 -4 -27 -9 -38 -7 -16 -9 -13 -9 18 -1 20 4 37 9 37 6 0 10 -8 9 -17z m15 -398 c-4 -9 0 -15 10 -15 18 0 21 -18 5 -40 -9 -13 -10 -12 -5 3 3 11 0 17 -9 17 -9 0 -15 10 -15 25 0 14 4 25 10 25 5 0 7 -7 4 -15z"/> <path d="M1417 271 c-15 -44 -16 -56 -5 -62 12 -8 11 -10 -10 -13 -5 0 -20 -14 -33 -30 -22 -25 -28 -27 -45 -16 -16 10 -26 10 -40 2 -18 -11 -18 -11 4 -12 29 0 82 -27 82 -41 0 -8 -6 -7 -17 1 -10 7 -6 1 10 -13 18 -17 27 -36 27 -57 0 -16 5 -30 10 -30 6 0 10 6 10 13 0 8 3 7 10 -3 16 -25 17 -7 3 40 -9 30 -24 52 -43 66 l-31 21 25 16 c30 20 37 14 76 -80 27 -63 50 -92 50 -62 0 25 -33 104 -57 136 -25 34 -28 43 -15 43 15 0 73 -88 87 -133 13 -38 14 -39 9 -7 -6 36 -60 147 -80 165 -14 12 -26 45 -17 45 4 0 18 -10 31 -22 24 -22 22 -9 -4 22 -7 8 -14 26 -16 40 -3 20 -7 15 -21 -29z"/> <path d="M801 212 c-15 -29 -8 -39 37 -52 58 -16 68 -13 47 10 -10 11 -27 20 -37 20 -10 0 -22 10 -27 22 l-8 22 -12 -22z"/> <path d="M750 161 c0 -5 7 -14 15 -21 12 -10 13 -16 1 -39 -19 -37 -36 -101 -26 -101 4 0 11 17 15 37 4 20 15 54 25 74 l19 36 -24 11 c-14 7 -25 8 -25 3z"/> <path d="M803 97 c-31 -63 -37 -97 -18 -97 9 0 13 5 10 10 -3 6 -2 10 3 10 9 0 34 110 28 117 -2 2 -12 -16 -23 -40z"/> <path d="M1250 90 c11 -11 20 -26 20 -32 1 -16 39 -63 46 -56 8 9 -8 88 -18 88 -5 0 -6 5 -3 10 4 6 -8 10 -29 10 -36 0 -36 0 -16 -20z"/> <path d="M1330 60 c19 -55 30 -73 30 -46 0 16 -36 96 -44 96 -1 0 5 -23 14 -50z"/> </g> </svg> 